<?xml version="1.0" encoding="UTF-8" standalone="no"?>
<svg
   xmlns:dc="http://purl.org/dc/elements/1.1/"
   xmlns:cc="http://creativecommons.org/ns#"
   xmlns:rdf="http://www.w3.org/1999/02/22-rdf-syntax-ns#"
   xmlns:svg="http://www.w3.org/2000/svg"
   xmlns="http://www.w3.org/2000/svg"
   xmlns:sodipodi="http://sodipodi.sourceforge.net/DTD/sodipodi-0.dtd"
   xmlns:inkscape="http://www.inkscape.org/namespaces/inkscape"
   id="svg232"
   version="1.1"
   viewBox="0 0 263.94272 28.857607"
   height="28.857607mm"
   width="263.94272mm"
   sodipodi:docname="logo.svg"
   inkscape:version="0.92.4 (5da689c313, 2019-01-14)">
  <sodipodi:namedview
     pagecolor="#ffffff"
     bordercolor="#666666"
     borderopacity="1"
     objecttolerance="10"
     gridtolerance="10"
     guidetolerance="10"
     inkscape:pageopacity="0"
     inkscape:pageshadow="2"
     inkscape:window-width="1920"
     inkscape:window-height="1080"
     id="namedview13"
     showgrid="false"
     inkscape:zoom="1.1387572"
     inkscape:cx="1265.8385"
     inkscape:cy="-7.9796795"
     inkscape:window-x="0"
     inkscape:window-y="73"
     inkscape:window-maximized="0"
     inkscape:current-layer="layer1" />
  <defs
     id="defs226" />
  <metadata
     id="metadata229">
    <rdf:RDF>
      <cc:Work
         rdf:about="">
        <dc:format>image/svg+xml</dc:format>
        <dc:type
           rdf:resource="http://purl.org/dc/dcmitype/StillImage" />
        <dc:title></dc:title>
      </cc:Work>
    </rdf:RDF>
  </metadata>
  <g
     transform="translate(5.7273043,-86.433707)"
     id="layer1">
    <g
       id="g20"
       style="fill:#ffffff">
      <g
         aria-label="BOSHENA"
         transform="matrix(0.26458333,0,0,0.26458333,-15.743747,33.175405)"
         style="font-style:normal;font-weight:normal;font-size:40px;line-height:0;font-family:sans-serif;letter-spacing:9.28000355px;word-spacing:0px;fill:#ffffff;fill-opacity:1;stroke:none"
         id="flowRoot10-1-5-9-8">
        <path
           d="m 142.66992,277.8281 q 0,9.5625 -3.65625,15.5625 -3.65625,5.90625 -10.125,9.28125 -6.375,3.28125 -15.09375,4.5 -8.71875,1.21875 -18.749998,1.21875 h -54 q -1.59375,0 -2.4375,-0.9375 -0.75,-0.9375 -0.75,-2.34375 v -97.6875 q 0,-1.6875 1.03125,-2.53125 1.03125,-0.9375 2.625,-0.9375 h 42.9375 q 6.75,0 13.3125,0.1875 6.562498,0.0937 12.374998,0.9375 5.90625,0.75 10.78125,2.34375 4.96875,1.59375 8.53125,4.5 3.65625,2.90625 5.625,7.3125 2.0625,4.40625 2.0625,10.78125 0,5.4375 -1.5,9.1875 -1.5,3.75 -3.84375,6.28125 -2.25,2.53125 -5.0625,4.03125 -2.8125,1.40625 -5.4375,2.15625 -2.625,0.65625 -4.78125,0.84375 -2.15625,0.1875 -3.1875,0.1875 h -0.65625 q 5.71875,0.5625 11.0625,1.96875 5.34375,1.40625 9.46875,4.3125 4.21875,2.8125 6.75,7.40625 2.625,4.59375 2.71875,11.4375 z m -13.5,-47.8125 q 0,-4.78125 -1.59375,-8.4375 -1.59375,-3.75 -6.09375,-6.28125 -4.5,-2.53125 -12.5625,-3.84375 -8.0625,-1.3125 -20.999998,-1.3125 h -42.09375 v 40.21875 h 44.34375 q 10.124998,0 17.437498,-0.75 7.40625,-0.84375 12.1875,-3.09375 4.78125,-2.25 7.03125,-6.1875 2.34375,-3.9375 2.34375,-10.3125 z m 5.53125,47.8125 q 0,-6.46875 -3.1875,-10.78125 -3.09375,-4.3125 -8.90625,-6.84375 -5.71875,-2.53125 -13.96875,-3.5625 -8.25,-1.125 -18.468748,-1.125 h -44.34375 v 46.6875 h 52.78125 q 12.656248,0 19.874998,-2.0625 7.3125,-2.0625 10.875,-5.4375 3.5625,-3.375 4.40625,-7.78125 0.9375,-4.40625 0.9375,-9.09375 z"
           style="font-style:normal;font-variant:normal;font-weight:normal;font-stretch:normal;font-size:192px;line-height:0;font-family:Gruppo;-inkscape-font-specification:Gruppo;letter-spacing:10.06000137px;fill:#ffffff"
           id="path22" />
        <path
           d="m 314.16742,256.17185 q 0,13.6875 -4.125,23.90625 -4.03125,10.125 -12.5625,16.875 -8.4375,6.75 -21.46875,10.125 -12.9375,3.28125 -30.75,3.28125 -17.8125,0 -30.84375,-3.28125 -12.9375,-3.375 -21.375,-10.125 -8.4375,-6.75 -12.5625,-16.875 -4.03125,-10.21875 -4.03125,-23.90625 0,-13.6875 4.03125,-23.8125 4.125,-10.21875 12.5625,-16.96875 8.4375,-6.75 21.375,-10.03125 13.03125,-3.375 30.84375,-3.375 17.8125,0 30.75,3.375 13.03125,3.28125 21.46875,10.03125 8.53125,6.75 12.5625,16.96875 4.125,10.125 4.125,23.8125 z m -129.75,0 q 0,13.125 3.75,22.21875 3.75,9.09375 11.25,14.90625 7.59375,5.71875 19.03125,8.34375 11.4375,2.53125 26.8125,2.53125 15.375,0 26.8125,-2.53125 11.4375,-2.625 19.03125,-8.34375 7.59375,-5.8125 11.34375,-14.90625 3.75,-9.09375 3.75,-22.21875 0,-13.03125 -3.75,-22.125 -3.75,-9.1875 -11.34375,-14.90625 -7.59375,-5.8125 -19.03125,-8.34375 -11.4375,-2.625 -26.8125,-2.625 -15.375,0 -26.8125,2.625 -11.4375,2.53125 -19.03125,8.34375 -7.5,5.71875 -11.25,14.90625 -3.75,9.09375 -3.75,22.125 z"
           style="font-style:normal;font-variant:normal;font-weight:normal;font-stretch:normal;font-size:192px;line-height:0;font-family:Gruppo;-inkscape-font-specification:Gruppo;letter-spacing:10.06000137px;fill:#ffffff"
           id="path24" />
        <path
           d="m 469.63367,279.23435 q 0,6 -2.15625,10.6875 -2.15625,4.59375 -6,8.0625 -3.84375,3.375 -9.1875,5.8125 -5.25,2.34375 -11.4375,3.84375 -6.1875,1.40625 -13.21875,1.96875 -6.9375,0.65625 -14.0625,0.65625 -10.03125,0 -19.96875,-1.03125 -9.9375,-1.03125 -18.5625,-2.53125 -8.625,-1.59375 -15.28125,-3.375 -6.5625,-1.78125 -9.9375,-3.375 -1.3125,-0.65625 -1.96875,-1.59375 -0.5625,-1.03125 -0.5625,-2.0625 0,-1.125 0.5625,-1.875 0.65625,-0.84375 1.875,-0.84375 0.5625,0 1.3125,0.28125 3.65625,1.5 10.5,3.28125 6.84375,1.78125 15.46875,3.375 8.71875,1.5 18.46875,2.53125 9.84375,1.03125 19.5,1.03125 9.375,0 17.8125,-1.21875 8.4375,-1.21875 14.8125,-4.125 6.46875,-2.90625 10.21875,-7.6875 3.84375,-4.78125 3.84375,-11.8125 0,-5.90625 -3.28125,-9.65625 -3.1875,-3.84375 -8.71875,-6.09375 -5.53125,-2.34375 -12.9375,-3.46875 -7.40625,-1.21875 -15.75,-1.78125 -8.25,-0.65625 -17.0625,-0.9375 -8.8125,-0.375 -17.15625,-1.125 -8.25,-0.75 -15.65625,-2.15625 -7.40625,-1.40625 -12.9375,-4.125 -5.53125,-2.71875 -8.8125,-7.03125 -3.1875,-4.3125 -3.1875,-10.875 0,-6 2.25,-10.59375 2.25,-4.59375 6.1875,-7.875 3.9375,-3.375 9.28125,-5.53125 5.4375,-2.25 11.71875,-3.5625 6.375,-1.3125 13.3125,-1.875 7.03125,-0.5625 14.0625,-0.5625 8.71875,0 17.15625,0.84375 8.4375,0.75 15.84375,2.15625 7.40625,1.3125 13.3125,3 5.90625,1.59375 9.46875,3.28125 0.75,0.375 1.125,1.125 0.375,0.65625 0.375,1.40625 0,1.3125 -0.9375,2.4375 -0.84375,1.125 -2.4375,1.125 -0.9375,0 -1.59375,-0.375 -4.96875,-2.0625 -11.0625,-3.65625 -6,-1.6875 -12.75,-2.8125 -6.75,-1.125 -13.96875,-1.6875 -7.125,-0.65625 -14.15625,-0.65625 -9.75,0 -18.65625,1.125 -8.90625,1.125 -15.75,3.84375 -6.75,2.625 -10.78125,7.125 -4.03125,4.40625 -4.03125,11.15625 0,5.15625 3.1875,8.4375 3.28125,3.1875 8.8125,5.15625 5.53125,1.96875 12.9375,3 7.40625,0.9375 15.65625,1.5 8.34375,0.5625 17.15625,1.03125 8.8125,0.375 17.0625,1.40625 8.34375,0.9375 15.75,2.71875 7.40625,1.6875 12.9375,4.78125 5.53125,3.09375 8.71875,7.96875 3.28125,4.78125 3.28125,11.8125 z"
           style="font-style:normal;font-variant:normal;font-weight:normal;font-stretch:normal;font-size:192px;line-height:0;font-family:Gruppo;-inkscape-font-specification:Gruppo;letter-spacing:10.06000137px;fill:#ffffff"
           id="path26" />
        <path
           d="m 505.19366,210.5156 q 0,-1.21875 0.0937,-2.34375 0.1875,-1.21875 0.65625,-2.15625 0.5625,-0.9375 1.40625,-1.5 0.9375,-0.5625 2.34375,-0.5625 1.03125,0 1.6875,0.65625 0.65625,0.5625 1.03125,1.5 0.46875,0.9375 0.5625,2.15625 0.1875,1.125 0.1875,2.25 v 41.0625 h 82.96875 v -41.0625 q 0,-1.21875 0.0937,-2.34375 0.0937,-1.21875 0.46875,-2.15625 0.46875,-0.9375 1.21875,-1.5 0.75,-0.5625 2.15625,-0.5625 1.40625,0 2.15625,0.5625 0.84375,0.5625 1.21875,1.5 0.46875,0.9375 0.5625,2.15625 0.0937,1.125 0.0937,2.34375 v 91.3125 q 0,1.21875 -0.0937,2.4375 -0.0937,1.125 -0.5625,2.0625 -0.375,0.9375 -1.125,1.5 -0.75,0.5625 -2.15625,0.5625 -1.40625,0 -2.25,-0.5625 -0.75,-0.5625 -1.21875,-1.5 -0.375,-0.9375 -0.46875,-2.0625 -0.0937,-1.21875 -0.0937,-2.4375 v -44.4375 h -82.96875 v 44.4375 q 0,1.125 -0.1875,2.34375 -0.1875,1.125 -0.65625,2.0625 -0.375,0.9375 -1.125,1.59375 -0.65625,0.5625 -1.6875,0.5625 -1.40625,0 -2.34375,-0.5625 -0.84375,-0.5625 -1.3125,-1.5 -0.375,-0.9375 -0.5625,-2.0625 -0.0937,-1.21875 -0.0937,-2.4375 z"
           style="font-style:normal;font-variant:normal;font-weight:normal;font-stretch:normal;font-size:192px;line-height:0;font-family:Gruppo;-inkscape-font-specification:Gruppo;letter-spacing:10.06000137px;fill:#ffffff"
           id="path28" />
        <path
           d="m 740.25366,305.10935 q 0,1.40625 -0.46875,2.0625 -0.46875,0.65625 -1.3125,0.9375 -0.75,0.28125 -1.875,0.28125 -1.125,0 -2.53125,0 h -87.5625 q -0.9375,0 -1.40625,-0.0937 -0.46875,-0.0937 -0.75,-0.46875 -0.1875,-0.375 -0.28125,-0.9375 0,-0.65625 0,-1.78125 v -96.75 q 0,-1.40625 0,-2.25 0.0937,-0.84375 0.375,-1.3125 0.28125,-0.46875 0.9375,-0.65625 0.75,-0.1875 2.15625,-0.1875 h 85.59375 q 1.40625,0 2.625,0 1.21875,0 2.15625,0.28125 1.03125,0.28125 1.59375,0.9375 0.5625,0.65625 0.5625,2.0625 0,1.125 -0.5625,1.78125 -0.5625,0.5625 -1.59375,0.84375 -0.9375,0.28125 -2.15625,0.28125 -1.21875,0 -2.625,0 h -81.09375 v 41.0625 h 80.625 q 2.0625,0 3.46875,0.5625 1.40625,0.5625 1.40625,2.4375 0,2.0625 -1.21875,2.71875 -1.125,0.65625 -3,0.65625 h -81.28125 v 44.625 h 81.28125 q 1.40625,0 2.625,0 1.21875,0 2.15625,0.28125 1.03125,0.28125 1.59375,0.9375 0.5625,0.5625 0.5625,1.6875 z"
           style="font-style:normal;font-variant:normal;font-weight:normal;font-stretch:normal;font-size:192px;line-height:0;font-family:Gruppo;-inkscape-font-specification:Gruppo;letter-spacing:10.06000137px;fill:#ffffff"
           id="path30" />
        <path
           d="m 881.46991,296.3906 v -85.3125 q 0,-1.40625 0.0937,-2.625 0.0937,-1.3125 0.46875,-2.25 0.46875,-1.03125 1.21875,-1.59375 0.84375,-0.65625 2.25,-0.65625 2.4375,0 3.1875,2.15625 0.75,2.0625 0.75,4.96875 v 91.3125 q 0,6 -3.1875,6 -2.15625,0 -5.34375,-2.90625 L 784.25116,215.9531 v 85.875 q 0,2.71875 -0.84375,4.6875 -0.75,1.875 -3,1.875 -2.71875,0 -3.46875,-1.875 -0.65625,-1.96875 -0.65625,-4.6875 v -91.78125 q 0,-2.8125 1.03125,-4.3125 1.03125,-1.5 2.8125,-1.5 2.34375,0 5.4375,2.8125 z"
           style="font-style:normal;font-variant:normal;font-weight:normal;font-stretch:normal;font-size:192px;line-height:0;font-family:Gruppo;-inkscape-font-specification:Gruppo;letter-spacing:10.06000137px;fill:#ffffff"
           id="path32" />
        <path
           d="m 972.90491,208.73435 q 1.5,-2.71875 2.34375,-3.75 0.84375,-1.03125 2.53125,-1.03125 1.3125,0 2.25,1.03125 1.03125,0.9375 2.625,3.75 l 51.74999,93.375 q 1.0313,1.875 1.0313,3.65625 0,1.6875 -0.9375,2.625 -0.9375,0.9375 -2.25,0.9375 -1.3125,0 -2.625,-0.9375 -1.2188,-0.84375 -2.5313,-3.1875 l -15.9375,-28.875 h -66.74999 l -16.125,29.25 q -1.03125,1.96875 -2.4375,2.8125 -1.3125,0.9375 -2.625,0.9375 -1.59375,0 -2.34375,-1.125 -0.75,-1.125 -0.75,-3 0,-0.75 0.28125,-1.5 0.375,-0.75 0.84375,-1.6875 z m 35.53129,62.0625 -30.65629,-55.96875 -30.65625,55.96875 z"
           style="font-style:normal;font-variant:normal;font-weight:normal;font-stretch:normal;font-size:192px;line-height:0;font-family:Gruppo;-inkscape-font-specification:Gruppo;letter-spacing:10.06000137px;fill:#ffffff"
           id="path34" />
      </g>
      <path
         inkscape:connector-curvature="0"
         id="path134"
         d="m 48.903222,86.940677 c -9.869228,0 -17.870027,6.270561 -17.870027,14.005503 0,7.73494 8.000799,14.00551 17.870027,14.00551 9.869238,0 17.870037,-6.27057 17.870037,-14.00551 -0.011,-7.73129 -8.005445,-13.996836 -17.870037,-14.005503 z m 15.455088,18.912003 -5.082096,0.68727 c 0.581725,-1.67202 0.895841,-3.39425 0.935091,-5.12691 h 5.355781 c -0.0672,1.5241 -0.476418,3.027 -1.208776,4.43964 z m -32.118939,-4.43964 h 5.355777 c 0.03925,1.73266 0.353377,3.45489 0.935081,5.12691 l -5.082074,-0.68727 c -0.732368,-1.41264 -1.141599,-2.91554 -1.208784,-4.43964 z m 1.208784,-5.373348 5.082074,-0.687275 c -0.581704,1.672048 -0.89583,3.394226 -0.935081,5.126923 h -5.355777 c 0.0673,-1.524116 0.476416,-3.027014 1.208784,-4.439648 z m 16.050737,-1.603198 c 2.140391,0.02142 4.275559,0.174165 6.385675,0.457036 l 2.102598,0.284265 c 0.645986,1.72288 0.993557,3.505941 1.033394,5.301545 h -9.521667 z m 6.588707,-0.463212 C 53.910553,93.681743 51.707342,93.52422 49.498892,93.502796 v -5.602198 c 3.414919,0.257134 6.381341,2.707624 8.062452,6.27397 z m -7.780047,-0.470486 c -2.208431,0.02142 -4.411077,0.178947 -6.588115,0.470486 l -1.47433,0.199923 c 1.681122,-3.567251 4.647547,-6.018676 8.062445,-6.274671 z m -6.385101,1.390734 c 2.109865,-0.282871 4.24473,-0.435604 6.385101,-0.457036 v 6.042846 h -9.521657 c 0.03993,-1.795604 0.387417,-3.578665 1.033403,-5.301545 z m -3.136556,6.51951 h 9.521657 v 6.04282 c -2.140371,-0.0214 -4.275538,-0.17415 -6.385676,-0.45703 l -2.102578,-0.28427 c -0.645986,-1.72287 -0.993558,-3.50595 -1.033403,-5.30152 z m 2.932968,6.50604 c 2.177038,0.292 4.379967,0.45019 6.588689,0.473 v 5.60218 c -3.414898,-0.25734 -6.381323,-2.70785 -8.062445,-6.27419 z m 7.780029,0.473 c 2.20845,-0.0227 4.411076,-0.181 6.588133,-0.473 l 1.474319,-0.19992 c -1.681111,3.56725 -4.647533,6.01867 -8.062452,6.27465 z m 6.385101,-1.39325 c -2.109844,0.28288 -4.24471,0.43561 -6.385101,0.45703 v -6.04282 h 9.521667 c -0.03983,1.79557 -0.387408,3.57865 -1.033394,5.30152 z m 4.327312,-6.51949 c -0.03915,-1.732697 -0.353366,-3.454875 -0.935091,-5.126923 l 5.082096,0.687275 c 0.732358,1.412634 1.141599,2.915532 1.208776,4.439648 z m 3.54435,-5.468641 -4.871502,-0.65878 c -0.875764,-2.239185 -2.514138,-4.248821 -4.739167,-5.812376 4.160659,1.088259 7.611048,3.411325 9.610669,6.471156 z M 43.661477,88.539543 c -2.225036,1.563555 -3.863403,3.573191 -4.739167,5.812376 l -4.871502,0.65878 c 1.999612,-3.059831 5.450012,-5.382897 9.610669,-6.471156 z m -9.610669,18.342127 4.871502,0.65878 c 0.875764,2.23918 2.514131,4.24883 4.739167,5.81235 -4.160657,-1.08823 -7.611057,-3.41131 -9.610669,-6.47113 z m 20.094178,6.47113 c 2.225029,-1.56352 3.863403,-3.57317 4.739167,-5.81235 l 4.871502,-0.65878 c -1.999621,3.05982 -5.45001,5.3829 -9.610669,6.47113 z m 0,0"
         style="stroke-width:0.34356645;fill:#ffffff" />
    </g>
  </g>
</svg>
