<?xml version="1.0" encoding="UTF-8" standalone="no"?>
<svg
   xmlns:dc="http://purl.org/dc/elements/1.1/"
   xmlns:cc="http://creativecommons.org/ns#"
   xmlns:rdf="http://www.w3.org/1999/02/22-rdf-syntax-ns#"
   xmlns:svg="http://www.w3.org/2000/svg"
   xmlns="http://www.w3.org/2000/svg"
   xmlns:sodipodi="http://sodipodi.sourceforge.net/DTD/sodipodi-0.dtd"
   xmlns:inkscape="http://www.inkscape.org/namespaces/inkscape"
   aria-hidden="true"
   focusable="false"
   data-prefix="far"
   data-icon="user"
   class="svg-inline--fa fa-user fa-w-14"
   role="img"
   viewBox="0 0 70 80"
   version="1.1"
   id="svg4"
   sodipodi:docname="user.svg"
   width="70"
   height="80"
   inkscape:version="0.92.4 (5da689c313, 2019-01-14)">
  <metadata
     id="metadata10">
    <rdf:RDF>
      <cc:Work
         rdf:about="">
        <dc:format>image/svg+xml</dc:format>
        <dc:type
           rdf:resource="http://purl.org/dc/dcmitype/StillImage" />
      </cc:Work>
    </rdf:RDF>
  </metadata>
  <defs
     id="defs8" />
  <sodipodi:namedview
     pagecolor="#ffffff"
     bordercolor="#666666"
     borderopacity="1"
     objecttolerance="10"
     gridtolerance="10"
     guidetolerance="10"
     inkscape:pageopacity="0"
     inkscape:pageshadow="2"
     inkscape:window-width="1920"
     inkscape:window-height="1080"
     id="namedview6"
     showgrid="false"
     inkscape:zoom="0.4609375"
     inkscape:cx="224"
     inkscape:cy="256"
     inkscape:window-x="0"
     inkscape:window-y="73"
     inkscape:window-maximized="0"
     inkscape:current-layer="svg4" />
  <path
     d="m 49,47.5 c -4.484375,0 -6.640625,2.5 -14,2.5 -7.359375,0 -9.5,-2.5 -14,-2.5 -11.59375,0 -21,9.40625 -21,21 v 4 C 0,76.64062 3.359375,80 7.5,80 h 55 c 4.140625,0 7.5,-3.35938 7.5,-7.5 v -4 c 0,-11.59375 -9.40625,-21 -21,-21 z m 13.5,25 h -55 v -4 C 7.5,61.0625 13.5625,55 21,55 c 2.28125,0 5.984375,2.5 14,2.5 8.078125,0 11.703125,-2.5 14,-2.5 7.4375,0 13.5,6.0625 13.5,13.5 z M 35,45 C 47.421875,45 57.5,34.92187 57.5,22.5 57.5,10.07812 47.421875,0 35,0 22.578125,0 12.5,10.07812 12.5,22.5 12.5,34.92187 22.578125,45 35,45 Z M 35,7.5 c 8.265625,0 15,6.73437 15,15 0,8.26562 -6.734375,15 -15,15 -8.265625,0 -15,-6.73438 -15,-15 0,-8.26563 6.734375,-15 15,-15 z"
     id="path2"
     inkscape:connector-curvature="0"
     style="fill:currentColor;stroke-width:0.15625" />
</svg>
