<?xml version="1.0" encoding="UTF-8" standalone="no"?>
<svg
   xmlns:dc="http://purl.org/dc/elements/1.1/"
   xmlns:cc="http://creativecommons.org/ns#"
   xmlns:rdf="http://www.w3.org/1999/02/22-rdf-syntax-ns#"
   xmlns:svg="http://www.w3.org/2000/svg"
   xmlns="http://www.w3.org/2000/svg"
   xmlns:sodipodi="http://sodipodi.sourceforge.net/DTD/sodipodi-0.dtd"
   xmlns:inkscape="http://www.inkscape.org/namespaces/inkscape"
   aria-hidden="true"
   focusable="false"
   data-prefix="fas"
   data-icon="network-wired"
   class="svg-inline--fa fa-network-wired fa-w-20"
   role="img"
   viewBox="0 0 100 80"
   version="1.1"
   id="svg4"
   sodipodi:docname="experience.svg"
   width="100"
   height="80"
   inkscape:version="0.92.4 (5da689c313, 2019-01-14)">
  <metadata
     id="metadata10">
    <rdf:RDF>
      <cc:Work
         rdf:about="">
        <dc:format>image/svg+xml</dc:format>
        <dc:type
           rdf:resource="http://purl.org/dc/dcmitype/StillImage" />
      </cc:Work>
    </rdf:RDF>
  </metadata>
  <defs
     id="defs8" />
  <sodipodi:namedview
     pagecolor="#ffffff"
     bordercolor="#666666"
     borderopacity="1"
     objecttolerance="10"
     gridtolerance="10"
     guidetolerance="10"
     inkscape:pageopacity="0"
     inkscape:pageshadow="2"
     inkscape:window-width="1920"
     inkscape:window-height="1080"
     id="namedview6"
     showgrid="false"
     inkscape:zoom="0.44375"
     inkscape:cx="320"
     inkscape:cy="256"
     inkscape:window-x="0"
     inkscape:window-y="73"
     inkscape:window-maximized="0"
     inkscape:current-layer="svg4" />
  <path
     d="m 100,41.25 v -2.5 c 0,-1.38125 -1.11875,-2.5 -2.5,-2.5 H 53.75 V 30 H 65 c 2.760937,0 5,-2.23906 5,-5 V 5 C 70,2.23906 67.760937,0 65,0 H 35 c -2.760938,0 -5,2.23906 -5,5 v 20 c 0,2.76094 2.239063,5 5,5 h 11.25 v 6.25 H 2.5 c -1.38125,0 -2.5,1.11875 -2.5,2.5 v 2.5 c 0,1.38125 1.11875,2.5 2.5,2.5 H 18.75 V 50 H 10 c -2.7609375,0 -5,2.23906 -5,5 v 20 c 0,2.76094 2.2390625,5 5,5 h 25 c 2.760938,0 5,-2.23906 5,-5 V 55 c 0,-2.76094 -2.239063,-5 -5,-5 h -8.75 v -6.25 h 47.5 V 50 H 65 c -2.760938,0 -5,2.23906 -5,5 v 20 c 0,2.76094 2.239062,5 5,5 h 25 c 2.760937,0 5,-2.23906 5,-5 V 55 c 0,-2.76094 -2.239063,-5 -5,-5 H 81.25 V 43.75 H 97.5 c 1.38125,0 2.5,-1.11875 2.5,-2.5 z M 40,20 V 10 H 60 V 20 Z M 30,70 H 15 V 60 h 15 z m 55,0 H 70 V 60 h 15 z"
     id="path2"
     inkscape:connector-curvature="0"
     style="fill:currentColor;stroke-width:0.15625" />
</svg>
