<?xml version="1.0" encoding="UTF-8" standalone="no"?>
<svg
   xmlns:dc="http://purl.org/dc/elements/1.1/"
   xmlns:cc="http://creativecommons.org/ns#"
   xmlns:rdf="http://www.w3.org/1999/02/22-rdf-syntax-ns#"
   xmlns:svg="http://www.w3.org/2000/svg"
   xmlns="http://www.w3.org/2000/svg"
   xmlns:sodipodi="http://sodipodi.sourceforge.net/DTD/sodipodi-0.dtd"
   xmlns:inkscape="http://www.inkscape.org/namespaces/inkscape"
   aria-hidden="true"
   focusable="false"
   data-prefix="fas"
   data-icon="server"
   class="svg-inline--fa fa-server fa-w-16"
   role="img"
   viewBox="0 0 91.428567 80"
   version="1.1"
   id="svg4"
   sodipodi:docname="server.svg"
   width="91.428566"
   height="80"
   inkscape:version="0.92.4 (5da689c313, 2019-01-14)">
  <metadata
     id="metadata10">
    <rdf:RDF>
      <cc:Work
         rdf:about="">
        <dc:format>image/svg+xml</dc:format>
        <dc:type
           rdf:resource="http://purl.org/dc/dcmitype/StillImage" />
      </cc:Work>
    </rdf:RDF>
  </metadata>
  <defs
     id="defs8" />
  <sodipodi:namedview
     pagecolor="#ffffff"
     bordercolor="#666666"
     borderopacity="1"
     objecttolerance="10"
     gridtolerance="10"
     guidetolerance="10"
     inkscape:pageopacity="0"
     inkscape:pageshadow="2"
     inkscape:window-width="1920"
     inkscape:window-height="1080"
     id="namedview6"
     showgrid="false"
     inkscape:zoom="0.4609375"
     inkscape:cx="106.30508"
     inkscape:cy="33.084743"
     inkscape:window-x="0"
     inkscape:window-y="73"
     inkscape:window-maximized="0"
     inkscape:current-layer="svg4" />
  <path
     d="M 85.714284,22.857149 H 5.7142833 C 2.5583833,22.857149 0,20.298751 0,17.142851 V 5.714283 C 0,2.5584 2.5583833,0 5.7142833,0 H 85.714284 c 3.155899,0 5.714283,2.5584 5.714283,5.714283 v 11.428568 c 0,3.155898 -2.558384,5.714298 -5.714283,5.714298 z M 77.142849,7.14285 c -2.366965,0 -4.285716,1.91875 -4.285716,4.285717 0,2.366966 1.918751,4.285717 4.285716,4.285717 2.366968,0 4.285718,-1.918751 4.285718,-4.285717 0,-2.366967 -1.91875,-4.285717 -4.285718,-4.285717 z m -11.428565,0 c -2.366968,0 -4.285717,1.91875 -4.285717,4.285717 0,2.366966 1.918749,4.285717 4.285717,4.285717 C 68.081251,15.714284 70,13.795533 70,11.428567 70,9.0616 68.081251,7.14285 65.714284,7.14285 Z m 20,44.285717 H 5.7142833 C 2.5583833,51.428567 0,48.870183 0,45.714284 V 34.285716 c 0,-3.1559 2.5583833,-5.714283 5.7142833,-5.714283 H 85.714284 c 3.155899,0 5.714283,2.558383 5.714283,5.714283 v 11.428568 c 0,3.1559 -2.558384,5.714283 -5.714283,5.714283 z M 77.142849,35.714284 c -2.366965,0 -4.285716,1.918749 -4.285716,4.285716 0,2.366967 1.918751,4.285716 4.285716,4.285716 2.366968,0 4.285718,-1.918749 4.285718,-4.285716 0,-2.366967 -1.91875,-4.285716 -4.285718,-4.285716 z m -11.428565,0 c -2.366968,0 -4.285717,1.918749 -4.285717,4.285716 0,2.366967 1.918749,4.285716 4.285717,4.285716 C 68.081251,44.285716 70,42.366967 70,40 70,37.633033 68.081251,35.714284 65.714284,35.714284 Z M 85.714284,80 H 5.7142833 C 2.5583833,80 0,77.4416 0,74.285716 V 62.857149 c 0,-3.1559 2.5583833,-5.7143 5.7142833,-5.7143 H 85.714284 c 3.155899,0 5.714283,2.5584 5.714283,5.7143 V 74.285716 C 91.428567,77.4416 88.870183,80 85.714284,80 Z M 77.142849,64.285716 c -2.366965,0 -4.285716,1.918751 -4.285716,4.285717 0,2.366967 1.918751,4.285716 4.285716,4.285716 2.366968,0 4.285718,-1.918749 4.285718,-4.285716 0,-2.366966 -1.91875,-4.285717 -4.285718,-4.285717 z m -11.428565,0 c -2.366968,0 -4.285717,1.918751 -4.285717,4.285717 0,2.366967 1.918749,4.285716 4.285717,4.285716 C 68.081251,72.857149 70,70.9384 70,68.571433 70,66.204467 68.081251,64.285716 65.714284,64.285716 Z"
     id="path2"
     inkscape:connector-curvature="0"
     style="fill:currentColor;stroke-width:0.17857142" />
</svg>
