<?xml version="1.0" encoding="UTF-8" standalone="no"?>
<svg
   xmlns:dc="http://purl.org/dc/elements/1.1/"
   xmlns:cc="http://creativecommons.org/ns#"
   xmlns:rdf="http://www.w3.org/1999/02/22-rdf-syntax-ns#"
   xmlns:svg="http://www.w3.org/2000/svg"
   xmlns="http://www.w3.org/2000/svg"
   xmlns:sodipodi="http://sodipodi.sourceforge.net/DTD/sodipodi-0.dtd"
   xmlns:inkscape="http://www.inkscape.org/namespaces/inkscape"
   aria-hidden="true"
   focusable="false"
   data-prefix="fas"
   data-icon="laptop-code"
   class="svg-inline--fa fa-laptop-code fa-w-20"
   role="img"
   viewBox="0 0 100 80"
   version="1.1"
   id="svg4"
   sodipodi:docname="laptop.svg"
   inkscape:version="0.92.4 (5da689c313, 2019-01-14)"
   width="100"
   height="80">
  <metadata
     id="metadata10">
    <rdf:RDF>
      <cc:Work
         rdf:about="">
        <dc:format>image/svg+xml</dc:format>
        <dc:type
           rdf:resource="http://purl.org/dc/dcmitype/StillImage" />
      </cc:Work>
    </rdf:RDF>
  </metadata>
  <defs
     id="defs8" />
  <sodipodi:namedview
     pagecolor="#ffffff"
     bordercolor="#666666"
     borderopacity="1"
     objecttolerance="10"
     gridtolerance="10"
     guidetolerance="10"
     inkscape:pageopacity="0"
     inkscape:pageshadow="2"
     inkscape:window-width="1920"
     inkscape:window-height="1017"
     id="namedview6"
     showgrid="false"
     inkscape:zoom="0.44375"
     inkscape:cx="49.57746"
     inkscape:cy="62.19718"
     inkscape:window-x="1912"
     inkscape:window-y="-8"
     inkscape:window-maximized="1"
     inkscape:current-layer="svg4" />
  <path
     d="m 39.848434,40.882816 c 0.976566,0.976566 2.559366,0.976566 3.535932,0 l 1.767184,-1.767182 c 0.976568,-0.976568 0.976568,-2.559384 0,-3.535952 L 39.5703,30 45.15,24.41875 c 0.97655,-0.976568 0.97655,-2.559368 0,-3.535932 l -1.7672,-1.767184 c -0.97655,-0.976568 -2.559366,-0.976568 -3.535934,0 L 30.73125,28.23125 c -0.976568,0.976566 -0.976568,2.559366 0,3.535932 z M 54.85,39.117182 l 1.767182,1.767184 c 0.976568,0.976568 2.559368,0.976568 3.535934,0 L 69.26875,31.76875 c 0.97655,-0.976566 0.97655,-2.559384 0,-3.535932 l -9.115634,-9.115634 c -0.976566,-0.976566 -2.559366,-0.976566 -3.535934,0 L 54.85,20.884366 c -0.976566,0.976568 -0.976566,2.559384 0,3.535952 L 60.429682,30 54.85,35.58125 c -0.976566,0.976568 -0.976566,2.559368 0,3.535932 z M 97.5,65 H 59.615618 C 59.49995,68.095318 57.317182,70 54.5,70 H 45 c -2.920316,0 -5.159384,-2.729684 -5.120318,-5 H 2.5 C 1.125,65 0,66.125 0,67.5 V 70 c 0,5.5 4.5,10 10,10 h 80 c 5.5,0 10,-4.5 10,-10 V 67.5 C 100,66.125 98.875,65 97.5,65 Z M 90,7.5 C 90,3.375 86.625,0 82.5,0 h -65 C 13.375,0 10,3.375 10,7.5 V 60 H 90 Z M 80,50 H 20 V 10 h 60 z"
     id="path2"
     inkscape:connector-curvature="0"
     style="fill:currentColor;stroke-width:0.15625" />
</svg>
