<?xml version="1.0" encoding="UTF-8" standalone="no"?>
<svg
   xmlns:dc="http://purl.org/dc/elements/1.1/"
   xmlns:cc="http://creativecommons.org/ns#"
   xmlns:rdf="http://www.w3.org/1999/02/22-rdf-syntax-ns#"
   xmlns:svg="http://www.w3.org/2000/svg"
   xmlns="http://www.w3.org/2000/svg"
   xmlns:sodipodi="http://sodipodi.sourceforge.net/DTD/sodipodi-0.dtd"
   xmlns:inkscape="http://www.inkscape.org/namespaces/inkscape"
   aria-hidden="true"
   focusable="false"
   data-prefix="far"
   data-icon="plus-square"
   class="svg-inline--fa fa-plus-square fa-w-14"
   role="img"
   viewBox="0 0 80 80"
   version="1.1"
   id="svg4"
   sodipodi:docname="plus.svg"
   width="80"
   height="80"
   inkscape:version="0.92.4 (5da689c313, 2019-01-14)">
  <metadata
     id="metadata10">
    <rdf:RDF>
      <cc:Work
         rdf:about="">
        <dc:format>image/svg+xml</dc:format>
        <dc:type
           rdf:resource="http://purl.org/dc/dcmitype/StillImage" />
      </cc:Work>
    </rdf:RDF>
  </metadata>
  <defs
     id="defs8" />
  <sodipodi:namedview
     pagecolor="#ffffff"
     bordercolor="#666666"
     borderopacity="1"
     objecttolerance="10"
     gridtolerance="10"
     guidetolerance="10"
     inkscape:pageopacity="0"
     inkscape:pageshadow="2"
     inkscape:window-width="1920"
     inkscape:window-height="1080"
     id="namedview6"
     showgrid="false"
     inkscape:zoom="0.4609375"
     inkscape:cx="224"
     inkscape:cy="224"
     inkscape:window-x="0"
     inkscape:window-y="73"
     inkscape:window-maximized="0"
     inkscape:current-layer="svg4" />
  <path
     d="m 62.857143,37.14286 v 5.71428 C 62.857143,44.03571 61.892857,45 60.714286,45 H 45 v 15.71429 c 0,1.17857 -0.964286,2.14285 -2.142857,2.14285 H 37.142857 C 35.964286,62.85714 35,61.89286 35,60.71429 V 45 H 19.285714 c -1.178571,0 -2.142857,-0.96429 -2.142857,-2.14286 V 37.14286 C 17.142857,35.96429 18.107143,35 19.285714,35 H 35 V 19.28571 c 0,-1.17857 0.964286,-2.14285 2.142857,-2.14285 h 5.714286 C 44.035714,17.14286 45,18.10714 45,19.28571 V 35 h 15.714286 c 1.178571,0 2.142857,0.96429 2.142857,2.14286 z M 80,8.57143 V 71.42857 C 80,76.16071 76.160714,80 71.428571,80 H 8.5714286 C 3.8392857,80 0,76.16071 0,71.42857 V 8.57143 C 0,3.83929 3.8392857,0 8.5714286,0 H 71.428571 C 76.160714,0 80,3.83929 80,8.57143 Z M 71.428571,70.35714 V 9.64286 c 0,-0.58929 -0.482142,-1.07143 -1.071428,-1.07143 H 9.6428571 c -0.5892857,0 -1.0714285,0.48214 -1.0714285,1.07143 v 60.71428 c 0,0.58929 0.4821428,1.07143 1.0714285,1.07143 H 70.357143 c 0.589286,0 1.071428,-0.48214 1.071428,-1.07143 z"
     id="path2"
     inkscape:connector-curvature="0"
     style="fill:currentColor;stroke-width:0.17857143" />
</svg>
